<svg xmlns="http://www.w3.org/2000/svg" width="836.65" height="254" viewBox="0 0 836.65 254"><defs><style>.cls-1{fill:#4f46e5;}.cls-2{fill:#4d4d4d;}</style></defs><g id="Layer_2" data-name="Layer 2"><g id="Layer_1-2" data-name="Layer 1"><path class="cls-1" d="M0,0V254H267V0ZM129.3,61h-76v49h76V219H25.3V191h76V138h-76V33h104Zm15.36,158V191h33.12L202,219Zm88.86,14.27L221,219l-24.23-28h13.75V61H144.66V33h93.87V196.45L254.7,215Z"/><path class="cls-2" d="M474.4,163.4c0,26.47-21.88,42-63,42H328.71V52.27H407c40.25,0,59.94,16.41,59.94,40,0,14.66-7.44,26.47-20.56,33.25C463.68,131.68,474.4,144.8,474.4,163.4ZM371.59,83.55v29.54h29.75c14.43,0,21.87-5,21.87-14.88,0-9.62-7.44-14.66-21.87-14.66Zm59.06,75c0-10.5-7.88-15.54-22.75-15.54H371.59v31.07H407.9C422.77,174.12,430.65,169.09,430.65,158.59Z"/><path class="cls-2" d="M495,43.09h41.56V205.4H495Z"/><path class="cls-2" d="M556,145.9c0-35.66,28.22-61,66.93-61,39.16,0,66.94,25.37,66.94,61,0,35.87-27.78,61.47-66.94,61.47C584.22,207.37,556,181.77,556,145.9Zm91.87,0c0-17.94-10.72-28-24.94-28-14,0-24.93,10.06-24.93,28,0,18.15,10.93,28.44,24.93,28.44C637.15,174.34,647.87,164.05,647.87,145.9Z"/><path class="cls-2" d="M836.65,86.84v96.9c0,44.85-25.37,66.06-69.56,66.06-22.75,0-44.4-5.25-58.84-15.53l15.09-29.09c9.85,7.87,26,12.69,40,12.69,22.32,0,31.72-10.07,31.72-28.66v-3.94c-8.09,9.41-20.12,14-35.22,14-31.5,0-58.18-22.31-58.18-57.31,0-34.78,26.68-57.09,58.18-57.09,16.41,0,29.1,5.25,37.19,16.4V86.84ZM795.53,142c0-14.44-10.94-24.06-25.81-24.06s-26,9.62-26,24.06,11.15,24.28,26,24.28S795.53,156.4,795.53,142Z"/></g></g></svg>